# xmcd CD database file
#
# Track frame offsets:
#	150
#	45504
#	50405
#	64754
#	88667
#	107893
#	120997
#	136129
#	152474
#	185916
#	207811
#	222803
#	234090
#	240706
#	321858
#
# Disc length: 4390 seconds
#
# Revision: 0
# Processed by: cddbd v1.5.1PL0 Copyright (c) Steve Scherf et al.
# Submitted via: CDex 1.51
#
DISCID=c711240f
DTITLE=Gordoloco Trio - Copany
DYEAR=2005
DGENRE=Jazz
TTITLE0=Ava Gardner
TTITLE1=Rca Plug
TTITLE2=Hypnos
TTITLE3=Tamaratrance
TTITLE4=Motion picture sound track (Radiohead)
TTITLE5=Landscape
TTITLE6=Radiodead
TTITLE7=Remix Almendrado
TTITLE8=Electropunkfreejazz contemporaneo
TTITLE9=Johnny Carter viaja en subte
TTITLE10=Remix Casatta
TTITLE11=Mi PC
TTITLE12=Remix Bombon Suizo
TTITLE13=Mulholland drive
TTITLE14=Agítese antes de usar
EXTD=YEAR: 2005
EXTT0=
EXTT1=
EXTT2=
EXTT3=
EXTT4=
EXTT5=
EXTT6=
EXTT7=
EXTT8=
EXTT9=
EXTT10=
EXTT11=
EXTT12=
EXTT13=
EXTT14=
PLAYORDER=
